# xmcd CD database file generated by OrangeCD 6.3
#
# Track frame offsets:
#	150
#	22395
#	41320
#	54413
#	66852
#	84752
#	103693
#	115910
#	125592
#	143707
#
# Disc length: 2146 seconds
#
# Revision: 0
# Processed by: cddbd v1.5.2PL0 Copyright (c) Steve Scherf et al.
# Submitted via: OrangeCD 6.3
#
DISCID=8408600a
DTITLE=Ben Kweller - Changing Horses
DYEAR=2009
DGENRE=Americana
TTITLE0=Gypsy Rose
TTITLE1=Old Hat
TTITLE2=Fight
TTITLE3=Hurtin' You
TTITLE4=Ballad Of Weny Baker
TTITLE5=Sawdust Man
TTITLE6=Wantin' Her Again
TTITLE7=Tings Like To Do
TTITLE8=On Her Own
TTITLE9=Homeward Bound
EXTD=
EXTT0=
EXTT1=
EXTT2=
EXTT3=
EXTT4=
EXTT5=
EXTT6=
EXTT7=
EXTT8=
EXTT9=
PLAYORDER=
